<svg width="47" height="56" viewBox="0 0 47 56" fill="none" xmlns="http://www.w3.org/2000/svg">
<path d="M46.4681 22.9091C46.4681 40.7273 23.234 56 23.234 56C23.234 56 0 40.7273 0 22.9091C9.18217e-08 16.8332 2.44787 11.0062 6.80509 6.70992C11.1623 2.41363 17.072 0 23.234 0C29.3961 0 35.3058 2.41363 39.663 6.70992C44.0202 11.0062 46.4681 16.8332 46.4681 22.9091Z" fill="#820DDF"/>
<ellipse cx="23.3333" cy="23.3333" rx="21" ry="21" fill="#820DDF"/>
<path d="M21.5822 22.1895V23.8164C21.5822 24.5957 21.5048 25.2611 21.3498 25.8125C21.1994 26.3594 20.9807 26.8037 20.6936 27.1455C20.4064 27.4873 20.0624 27.738 19.6613 27.8975C19.2648 28.057 18.8205 28.1367 18.3283 28.1367C17.9364 28.1367 17.5718 28.0866 17.2346 27.9863C16.9019 27.8861 16.6011 27.7288 16.3322 27.5146C16.0633 27.3005 15.8332 27.0247 15.6418 26.6875C15.4549 26.3457 15.3091 25.9378 15.2043 25.4639C15.104 24.9899 15.0539 24.4408 15.0539 23.8164V22.1895C15.0539 21.4056 15.1314 20.7448 15.2863 20.207C15.4413 19.6647 15.6623 19.2249 15.9494 18.8877C16.2365 18.5459 16.5783 18.2975 16.9748 18.1426C17.3758 17.9876 17.8225 17.9102 18.3146 17.9102C18.7111 17.9102 19.0757 17.9603 19.4084 18.0605C19.7456 18.1562 20.0464 18.3089 20.3107 18.5186C20.5796 18.7282 20.8075 19.0016 20.9943 19.3389C21.1857 19.6715 21.3316 20.0749 21.4318 20.5488C21.5321 21.0182 21.5822 21.5651 21.5822 22.1895ZM19.9348 24.0488V21.9434C19.9348 21.5469 19.912 21.1982 19.8664 20.8975C19.8208 20.5921 19.7525 20.3346 19.6613 20.125C19.5747 19.9108 19.4654 19.7376 19.3332 19.6055C19.201 19.4688 19.0507 19.3708 18.882 19.3115C18.7134 19.2477 18.5243 19.2158 18.3146 19.2158C18.0594 19.2158 17.8316 19.266 17.6311 19.3662C17.4305 19.4619 17.2619 19.6169 17.1252 19.8311C16.9885 20.0452 16.8837 20.3278 16.8107 20.6787C16.7424 21.0251 16.7082 21.4466 16.7082 21.9434V24.0488C16.7082 24.4499 16.731 24.8031 16.7766 25.1084C16.8221 25.4137 16.8905 25.6758 16.9816 25.8945C17.0728 26.1087 17.1822 26.2865 17.3098 26.4277C17.4419 26.5645 17.5923 26.6647 17.7609 26.7285C17.9341 26.7923 18.1232 26.8242 18.3283 26.8242C18.5881 26.8242 18.8182 26.7741 19.0188 26.6738C19.2193 26.5736 19.3879 26.4141 19.5246 26.1953C19.6613 25.972 19.7639 25.6826 19.8322 25.3271C19.9006 24.9717 19.9348 24.5456 19.9348 24.0488ZM30.1238 26.6875V28H23.452V26.8721L26.6922 23.3379C27.0477 22.9368 27.3279 22.5905 27.533 22.2988C27.7381 22.0072 27.8816 21.7451 27.9637 21.5127C28.0503 21.2757 28.0936 21.0456 28.0936 20.8223C28.0936 20.5078 28.0343 20.2321 27.9158 19.9951C27.8019 19.7536 27.6333 19.5645 27.41 19.4277C27.1867 19.2865 26.9155 19.2158 26.5965 19.2158C26.2273 19.2158 25.9174 19.2956 25.6668 19.4551C25.4161 19.6146 25.227 19.8356 25.0994 20.1182C24.9718 20.3962 24.908 20.7152 24.908 21.0752H23.2605C23.2605 20.4964 23.3927 19.9678 23.657 19.4893C23.9214 19.0062 24.3042 18.6234 24.8055 18.3408C25.3068 18.0537 25.9106 17.9102 26.617 17.9102C27.2824 17.9102 27.8475 18.0218 28.3123 18.2451C28.7771 18.4684 29.1303 18.7852 29.3719 19.1953C29.618 19.6055 29.741 20.0908 29.741 20.6514C29.741 20.9613 29.6909 21.2689 29.5906 21.5742C29.4904 21.8796 29.3468 22.1849 29.16 22.4902C28.9777 22.791 28.7612 23.0941 28.5105 23.3994C28.2599 23.7002 27.9842 24.0055 27.6834 24.3154L25.5301 26.6875H30.1238Z" fill="white"/>
</svg>
